<?xml version="1.0" encoding="UTF-8"?><svg id="Layer_1" xmlns="http://www.w3.org/2000/svg" viewBox="0 0 4247.78 1100"><defs><style>.cls-1{fill:#fff;}.cls-1,.cls-2,.cls-3{stroke-width:0px;}.cls-2{fill:#151210;}.cls-3{fill:#36b6b0;}.cls-4{fill:none;stroke:#ffcd00;stroke-miterlimit:10;stroke-width:40px;}</style></defs><path class="cls-2" d="m2049.59,405.55c0,82.5-53.1,108-102,108h-77.4v-210h68.4c58.8,0,111,28.2,111,102Zm-133.5-64.5v135h31.5c26.4,0,54.9-12.9,54.9-70.2,0-39-17.4-64.8-62.4-64.8h-24Z"/><path class="cls-2" d="m2122.78,305.95c0,13.8-12,24.9-25.8,24.9s-25.8-11.1-25.8-24.9,12-24.6,25.8-24.6,25.8,10.8,25.8,24.6Zm-3.9,207.6h-43.8v-159.3h43.8v159.3Z"/><path class="cls-2" d="m2303.08,375.25c-10.8,0-16.2.6-22.8,3,5.4,7.5,7.8,16.2,7.8,25.8,0,29.7-24,51.6-69.6,51.6-11.4,0-21.6-1.8-30.6-4.8-2.7,2.7-4.5,6-4.5,9.3,0,7.8,4.8,12,20.1,12h27.6c47.1,0,67.5,20.4,67.5,47.4,0,30.9-27.6,50.4-81,50.4-58.2,0-77.1-18-77.1-41.4,0-13.5,8.1-24.3,22.8-31.5-10.8-6.6-15.3-15.9-15.3-26.7s6.6-21,18.9-28.8c-13.5-8.7-21.6-22.2-21.6-38.1,0-29.7,23.4-53.4,70.5-53.4,17.7,0,31.5,3.3,42.3,8.7,9.9-12,24.3-19.2,45-19.2v35.7Zm-115.2,130.5c-7.8,5.1-10.2,9.9-10.2,16.2,0,11.1,8.4,18,38.4,18,27,0,38.1-6.9,38.1-18,0-11.7-8.1-16.2-31.8-16.2h-34.5Zm.9-103.2c0,13.8,9.6,22.8,28.2,22.8s28.2-8.7,28.2-22.8-9.6-23.7-27.9-23.7-28.5,9.3-28.5,23.7Z"/><path class="cls-2" d="m2369.08,305.95c0,13.8-12,24.9-25.8,24.9s-25.8-11.1-25.8-24.9,12-24.6,25.8-24.6,25.8,10.8,25.8,24.6Zm-3.9,207.6h-43.8v-159.3h43.8v159.3Z"/><path class="cls-2" d="m2447.67,356.95h38.4v31.2h-38.4v74.7c0,13.2,4.2,19.5,18.6,19.5,8.4,0,15.9-1.5,22.8-3.3v33.6c-9.6,3-21.3,5.1-34.5,5.1-37.8,0-50.7-18.3-50.7-48v-81.6h-21.6v-31.2h21.6v-41.4h43.8v41.4Z"/><path class="cls-2" d="m2642.07,400.15v78.6c0,12.6.9,23.7,5.4,34.8h-43.5c-2.4-5.1-3.9-10.5-4.8-16.2-11.7,15.3-29.1,20.4-46.8,20.4-33.9,0-53.4-20.4-53.4-48.9,0-30,18.3-48.3,66-54.3l33.3-4.2v-7.2c0-16.8-5.1-22.5-24-22.5s-25.2,6-25.8,21h-43.2c1.2-34.8,27-51.6,69.9-51.6,48.3,0,66.9,18.3,66.9,50.1Zm-66.3,41.1c-23.1,3.3-32.1,9.9-32.1,23.4,0,11.4,6.9,19.2,21.6,19.2,18,0,33-12.3,33-30v-15.6l-22.5,3Z"/><path class="cls-2" d="m2716.77,513.55h-43.8v-210h43.8v210Z"/><path class="cls-2" d="m2947.77,438.55h28.8v35.4h-28.8v39.6h-43.5v-39.6h-102.9v-36l89.4-129.6h57v130.2Zm-100.2,0h56.4v-84.6l-56.4,84.6Z"/><path class="cls-3" d="m193.5,659.65l-44.4,11.7c-9-22.8-23.4-34.5-47.7-34.5-33.3,0-54.3,25.8-54.3,71.1s18.9,72.3,54.9,72.3c27.6,0,42.9-13.8,52.2-39.3l43.5,13.5c-16.5,42.9-54,64.2-96.6,64.2-49.8,0-101.1-30-101.1-110.4s49.8-109.8,101.4-109.8c37.5,0,74.7,15.3,92.1,61.2Z"/><path class="cls-3" d="m269.1,605.95c0,13.8-12,24.9-25.8,24.9s-25.8-11.1-25.8-24.9,12-24.6,25.8-24.6,25.8,10.8,25.8,24.6Zm-3.9,207.6h-43.8v-159.3h43.8v159.3Z"/><path class="cls-3" d="m394.8,650.65v42.6c-5.4-.3-7.5-.3-9.6-.3-24.6,0-43.8,11.1-43.8,54.6v66h-43.8v-159.3h42.3v25.8c11.1-21.3,26.4-30,43.5-30,3.9,0,7.8.3,11.4.6Z"/><path class="cls-3" d="m555,693.25l-38.1,15c-5.7-15-16.8-23.4-32.4-23.4-22.5,0-37.5,15.9-37.5,48.6s14.4,49.5,37.5,49.5c20.1,0,29.1-12.3,34.5-27l37.8,15c-12.9,27.6-37.2,46.8-74.7,46.8-50.7,0-81-35.1-81-83.7s31.2-84,81-84c35.7,0,60.3,16.5,72.9,43.2Z"/><path class="cls-3" d="m717,813.55h-42.6v-18.9c-11.7,15.6-27.9,23.1-47.1,23.1-30.6,0-53.1-17.4-53.1-55.5v-108h43.8v97.8c0,20.4,7.2,28.2,23.4,28.2,18.6,0,31.8-14.4,31.8-36.3v-89.7h43.8v159.3Z"/><path class="cls-3" d="m793.19,813.55h-43.8v-210h43.8v210Z"/><path class="cls-3" d="m959.39,700.15v78.6c0,12.6.9,23.7,5.4,34.8h-43.5c-2.4-5.1-3.9-10.5-4.8-16.2-11.7,15.3-29.1,20.4-46.8,20.4-33.9,0-53.4-20.4-53.4-48.9,0-30,18.3-48.3,66-54.3l33.3-4.2v-7.2c0-16.8-5.1-22.5-24-22.5s-25.2,6-25.8,21h-43.2c1.2-34.8,27-51.6,69.9-51.6,48.3,0,66.9,18.3,66.9,50.1Zm-66.3,41.1c-23.1,3.3-32.1,9.9-32.1,23.4,0,11.4,6.9,19.2,21.6,19.2,18,0,33-12.3,33-30v-15.6l-22.5,3Z"/><path class="cls-3" d="m1087.49,650.65v42.6c-5.4-.3-7.5-.3-9.6-.3-24.6,0-43.8,11.1-43.8,54.6v66h-43.8v-159.3h42.3v25.8c11.1-21.3,26.4-30,43.5-30,3.9,0,7.8.3,11.4.6Z"/><path class="cls-3" d="m1353.89,659.65l-44.4,11.7c-9-22.8-23.4-34.5-47.7-34.5-33.3,0-54.3,25.8-54.3,71.1s18.9,72.3,54.9,72.3c27.6,0,42.9-13.8,52.2-39.3l43.5,13.5c-16.5,42.9-54,64.2-96.6,64.2-49.8,0-101.1-30-101.1-110.4s49.8-109.8,101.4-109.8c37.5,0,74.7,15.3,92.1,61.2Z"/><path class="cls-3" d="m1533.89,733.75c0,50.1-31.5,84-83.4,84s-83.1-35.1-83.1-84,31.5-83.7,83.1-83.7,83.4,36,83.4,83.7Zm-120.6-.6c0,32.7,13.8,49.8,37.2,49.8s37.5-17.1,37.5-49.8-15-48.3-37.5-48.3-37.2,15.6-37.2,48.3Z"/><path class="cls-3" d="m1702.49,710.35v103.2h-43.8v-90c0-23.7-5.4-36.9-24.9-36.9s-32.1,15.9-32.1,39v87.9h-43.8v-159.3h42.3v21c12-17.7,29.1-25.2,48.9-25.2,33.9,0,53.4,21.9,53.4,60.3Z"/><path class="cls-3" d="m1864.48,674.05l-22.5,24.6c-13.2-10.8-27.3-16.5-43.5-16.5-17.4,0-25.5,6-25.5,15,0,9.9,6.3,12.9,38.1,18.9,38.1,6.6,57,21,57,50.7s-26.1,51-72.6,51c-35.1,0-58.8-10.5-76.5-27.3l22.5-25.8c15.3,13.8,32.4,20.1,50.1,20.1,21,0,30.6-6.3,30.6-16.2s-4.2-14.1-38.4-20.1c-37.8-6.9-55.8-21.6-55.8-48.9,0-31.8,29.7-49.5,69-49.5,30,0,52.5,9.9,67.5,24Z"/><path class="cls-3" d="m1939.18,656.95h38.4v31.2h-38.4v74.7c0,13.2,4.2,19.5,18.6,19.5,8.4,0,15.9-1.5,22.8-3.3v33.6c-9.6,3-21.3,5.1-34.5,5.1-37.8,0-50.7-18.3-50.7-48v-81.6h-21.6v-31.2h21.6v-41.4h43.8v41.4Z"/><path class="cls-3" d="m2096.98,650.65v42.6c-5.4-.3-7.5-.3-9.6-.3-24.6,0-43.8,11.1-43.8,54.6v66h-43.8v-159.3h42.3v25.8c11.1-21.3,26.4-30,43.5-30,3.9,0,7.8.3,11.4.6Z"/><path class="cls-3" d="m2255.98,813.55h-42.6v-18.9c-11.7,15.6-27.9,23.1-47.1,23.1-30.6,0-53.1-17.4-53.1-55.5v-108h43.8v97.8c0,20.4,7.2,28.2,23.4,28.2,18.6,0,31.8-14.4,31.8-36.3v-89.7h43.8v159.3Z"/><path class="cls-3" d="m2433.88,693.25l-38.1,15c-5.7-15-16.8-23.4-32.4-23.4-22.5,0-37.5,15.9-37.5,48.6s14.4,49.5,37.5,49.5c20.1,0,29.1-12.3,34.5-27l37.8,15c-12.9,27.6-37.2,46.8-74.7,46.8-50.7,0-81-35.1-81-83.7s31.2-84,81-84c35.7,0,60.3,16.5,72.9,43.2Z"/><path class="cls-3" d="m2504.67,656.95h38.4v31.2h-38.4v74.7c0,13.2,4.2,19.5,18.6,19.5,8.4,0,15.9-1.5,22.8-3.3v33.6c-9.6,3-21.3,5.1-34.5,5.1-37.8,0-50.7-18.3-50.7-48v-81.6h-21.6v-31.2h21.6v-41.4h43.8v41.4Z"/><path class="cls-3" d="m2612.97,605.95c0,13.8-12,24.9-25.8,24.9s-25.8-11.1-25.8-24.9,12-24.6,25.8-24.6,25.8,10.8,25.8,24.6Zm-3.9,207.6h-43.8v-159.3h43.8v159.3Z"/><path class="cls-3" d="m2799.57,733.75c0,50.1-31.5,84-83.4,84s-83.1-35.1-83.1-84,31.5-83.7,83.1-83.7,83.4,36,83.4,83.7Zm-120.6-.6c0,32.7,13.8,49.8,37.2,49.8s37.5-17.1,37.5-49.8-15-48.3-37.5-48.3-37.2,15.6-37.2,48.3Z"/><path class="cls-3" d="m2968.17,710.35v103.2h-43.8v-90c0-23.7-5.4-36.9-24.9-36.9s-32.1,15.9-32.1,39v87.9h-43.8v-159.3h42.3v21c12-17.7,29.1-25.2,48.9-25.2,33.9,0,53.4,21.9,53.4,60.3Z"/><path class="cls-3" d="m3697.78,0h0C4001.33,0,4247.78,246.45,4247.78,550v550h-550c-303.55,0-550-246.45-550-550h0C3147.78,246.45,3394.23,0,3697.78,0Z" transform="translate(7395.56 1100) rotate(180)"/><path class="cls-1" d="m3828.93,608.72l138.84-52.72v264h-138.84v-211.28Zm-401.16,209.73h158.62s0-382.84,0-382.84l-158.62,17.57v365.26Zm193.77-538.45v540s46.47,0,46.47,0v-456.37s17.14-4.39,17.14-4.39v460.76s31.74,0,31.74,0v-465.15s17.14-4.39,17.14-4.39v469.55s50.09,0,50.09,0v-469.55s-50.09,0-50.09,0v-47.96s-112.48-22.49-112.48-22.49Z"/><path class="cls-4" d="m3297.78,566.98c0-230.48,186.5-416.98,416.98-416.98"/></svg>